<svg width="16" height="14" viewBox="0 0 16 14" fill="none" xmlns="http://www.w3.org/2000/svg">
<path d="M2.10303 7.05451L2.10178 7.05334C1.76929 6.74049 1.50069 6.36408 1.3118 5.94539C1.12291 5.52669 1.01755 5.07417 1.00201 4.61379C0.986474 4.15341 1.06107 3.69462 1.22136 3.26376C1.38165 2.83291 1.62435 2.43875 1.93515 2.10362C2.24594 1.76851 2.61868 1.49902 3.0318 1.31014C3.4449 1.12127 3.89051 1.01659 4.34318 1.00182C4.79586 0.987045 5.24714 1.06246 5.67132 1.22394C6.09551 1.38543 6.48455 1.62995 6.81597 1.94393L6.81721 1.9451L7.31628 2.41631L8.0028 3.0645L8.68932 2.41632L9.18839 1.94511C9.85791 1.31299 10.747 0.976613 11.6598 1.00719C12.5726 1.03777 13.438 1.43297 14.0649 2.1089C14.692 2.78514 15.0287 3.6869 14.9981 4.61606C14.9675 5.54521 14.5724 6.4221 13.9025 7.05451L13.9025 7.05451L8.0028 12.6247L2.10303 7.05451Z" stroke="#131313"/>
</svg>
