<svg width="18" height="18" viewBox="0 0 18 18" fill="none" xmlns="http://www.w3.org/2000/svg">
<path d="M12.5563 0.199402H5.4426C2.55152 0.199402 0.199463 2.55146 0.199463 5.44254V12.5563C0.199463 15.4473 2.55152 17.7994 5.4426 17.7994H12.5563C15.4474 17.7994 17.7995 15.4473 17.7995 12.5563V5.44254C17.7994 2.55146 15.4474 0.199402 12.5563 0.199402ZM16.0289 12.5563C16.0289 14.4741 14.4742 16.0288 12.5563 16.0288H5.4426C3.52476 16.0288 1.97002 14.4741 1.97002 12.5563V5.44254C1.97002 3.52467 3.52476 1.96996 5.4426 1.96996H12.5563C14.4742 1.96996 16.0289 3.52467 16.0289 5.44254V12.5563Z" fill="#131313" stroke="#131313" stroke-width="0.2"/>
<path d="M9.00156 4.60138C6.5754 4.60138 4.60156 6.57522 4.60156 9.00136C4.60156 11.4275 6.5754 13.4014 9.00156 13.4014C11.4277 13.4014 13.4016 11.4275 13.4016 9.00136C13.4016 6.57519 11.4277 4.60138 9.00156 4.60138ZM9.00156 11.69C7.5167 11.69 6.313 10.4863 6.313 9.00139C6.313 7.51653 7.51673 6.31283 9.00156 6.31283C10.4864 6.31283 11.6901 7.51653 11.6901 9.00139C11.6901 10.4862 10.4864 11.69 9.00156 11.69Z" fill="#131313" stroke="#131313" stroke-width="0.2"/>
<path d="M13.4008 5.70018C14.0083 5.70018 14.5008 5.2077 14.5008 4.60018C14.5008 3.99267 14.0083 3.50018 13.4008 3.50018C12.7933 3.50018 12.3008 3.99267 12.3008 4.60018C12.3008 5.2077 12.7933 5.70018 13.4008 5.70018Z" fill="#131313"/>
</svg>
