<svg width="15" height="15" viewBox="0 0 15 15" fill="none" xmlns="http://www.w3.org/2000/svg">
<path d="M1.70684 7.16033L8.57453 4.32486C9.25245 4.0295 11.5515 3.08434 11.5515 3.08434C11.5515 3.08434 12.6126 2.67083 12.5242 3.67506C12.4947 4.08857 12.2589 5.53584 12.0231 7.10126L11.2862 11.7384C11.2862 11.7384 11.2273 12.4178 10.7262 12.5359C10.2251 12.6541 9.39983 12.1224 9.25245 12.0043C9.13455 11.9157 7.04182 10.5865 6.27547 9.93674C6.06915 9.75952 5.83335 9.40509 6.30495 8.99158C7.36605 8.01688 8.63347 6.8059 9.39983 6.03796C9.75353 5.68352 10.1072 4.85651 8.63348 5.86074L4.47749 8.66668C4.47749 8.66668 4.00589 8.96204 3.12164 8.69622C2.23739 8.43039 1.20576 8.07596 1.20576 8.07596C1.20576 8.07596 0.498362 7.63291 1.70684 7.16033V7.16033Z" fill="white"/>
</svg>
