<svg width="18" height="10" viewBox="0 0 18 10" fill="none" xmlns="http://www.w3.org/2000/svg">
<path fill-rule="evenodd" clip-rule="evenodd" d="M17.3956 1.19707C17.5179 0.85359 17.3956 0.601196 16.8133 0.601196H14.8879C14.3983 0.601196 14.1726 0.819228 14.0502 1.05965C14.0502 1.05965 13.071 3.06901 11.6839 4.37422C11.2352 4.75204 11.0312 4.87225 10.7864 4.87225C10.664 4.87225 10.4868 4.75204 10.4868 4.40858V1.19707C10.4868 0.784894 10.3447 0.601196 9.93673 0.601196H6.91103C6.60508 0.601196 6.42109 0.792498 6.42109 0.973803C6.42109 1.36454 7.1146 1.45465 7.18609 2.5538V4.94097C7.18609 5.46435 7.07382 5.55924 6.82903 5.55924C6.1763 5.55924 4.58851 3.54091 3.64681 1.23141C3.46226 0.782521 3.27716 0.601196 2.78507 0.601196H0.859623C0.309495 0.601196 0.199463 0.819228 0.199463 1.05965C0.199463 1.48901 0.852233 3.61858 3.23886 6.43509C4.82994 8.35854 7.07166 9.4012 9.11154 9.4012C10.3354 9.4012 10.4869 9.16962 10.4869 8.77072V7.31699C10.4869 6.85383 10.6028 6.76139 10.9904 6.76139C11.2759 6.76139 11.7655 6.88161 12.9079 7.809C14.2134 8.90812 14.4286 9.4012 15.1629 9.4012H17.0884C17.6385 9.4012 17.9136 9.16962 17.7549 8.71261C17.5813 8.25713 16.9579 7.59628 16.1309 6.81291C15.6821 6.36639 15.0089 5.88555 14.8049 5.64507C14.5194 5.33597 14.601 5.19855 14.8049 4.92379C14.8049 4.92379 17.1508 2.14162 17.3956 1.19707Z" fill="#131313"/>
</svg>
