<svg width="26" height="26" viewBox="0 0 26 26" fill="none" xmlns="http://www.w3.org/2000/svg">
<path d="M7.55442 21.3057L7.92225 21.5228C9.46781 22.4359 11.2398 22.9189 13.0468 22.9198H13.0507C18.6002 22.9198 23.1168 18.4244 23.1189 12.8993C23.1198 10.2216 22.0736 7.70403 20.1726 5.80984C18.2716 3.91599 15.744 2.87229 13.0543 2.87118C7.50065 2.87118 2.98404 7.36594 2.98194 12.8911C2.98121 14.7844 3.51322 16.6283 4.52122 18.2236L4.76081 18.6028L3.74345 22.3004L7.55442 21.3057ZM0.835205 25.1647L2.55372 18.9176C1.49372 17.0892 0.936083 15.0152 0.936956 12.8905C0.93954 6.24325 6.3733 0.835281 13.051 0.835281C16.2913 0.836672 19.3327 2.09215 21.6198 4.37095C23.9066 6.64972 25.1657 9.6788 25.1646 12.9002C25.1618 19.5471 19.7269 24.9561 13.051 24.9561C13.0505 24.9561 13.0512 24.9561 13.051 24.9561H13.0458C11.0185 24.9554 9.02641 24.4492 7.25713 23.4885L0.835205 25.1647Z" fill="white"/>
<path fill-rule="evenodd" clip-rule="evenodd" d="M10.5296 8.72865C10.3415 8.31223 10.1435 8.3039 9.9645 8.29657C9.81802 8.29037 9.6505 8.29078 9.48318 8.29078C9.31565 8.29078 9.04355 8.35336 8.81346 8.60357C8.58317 8.8538 7.93433 9.45866 7.93433 10.6888C7.93433 11.9191 8.83444 13.1079 8.95984 13.2748C9.08546 13.4415 10.6974 16.0468 13.2501 17.049C15.3717 17.8819 15.8035 17.7162 16.264 17.6745C16.7245 17.6328 17.75 17.0698 17.9592 16.4859C18.1685 15.9021 18.1685 15.4017 18.1058 15.2972C18.043 15.193 17.8755 15.1304 17.6243 15.0054C17.3731 14.8804 16.1383 14.2754 15.9082 14.192C15.6779 14.1086 15.5104 14.067 15.3429 14.3173C15.1755 14.5674 14.6945 15.1304 14.5479 15.2972C14.4014 15.4643 14.2548 15.4851 14.0037 15.3601C13.7524 15.2346 12.9435 14.9708 11.9839 14.1191C11.2372 13.4564 10.7332 12.6379 10.5866 12.3876C10.4402 12.1375 10.571 12.0021 10.6969 11.8774C10.8098 11.7654 10.9482 11.5855 11.0738 11.4396C11.1991 11.2935 11.2409 11.1893 11.3246 11.0225C11.4084 10.8557 11.3665 10.7096 11.3038 10.5846C11.2409 10.4595 10.7528 9.22301 10.5295 8.72857" fill="white"/>
</svg>
